<svg width="30" height="30" viewBox="0 0 30 30" fill="none" xmlns="http://www.w3.org/2000/svg">
<path d="M29.9425 18.851C29.2258 21.416 27.8501 23.7488 25.9522 25.6171C24.0543 27.4854 21.7004 28.8242 19.1246 29.5003C16.5487 30.1764 13.8408 30.1663 11.2701 29.4709C8.69942 28.7755 6.35559 27.4191 4.47175 25.5366C2.58791 23.6541 1.22974 21.3111 0.532323 18.7408C-0.16509 16.1704 -0.177434 13.4622 0.496519 10.8856C1.17047 8.30894 2.50723 5.9537 4.37383 4.05411C6.24043 2.15452 8.57181 0.776803 11.136 0.0579986C11.3239 -0.00250171 11.5238 -0.0159206 11.7181 0.0189218C11.9123 0.0537641 12.0951 0.135801 12.2502 0.25782C12.4054 0.37984 12.5282 0.538106 12.6078 0.718708C12.6875 0.899309 12.7216 1.09672 12.7071 1.29357C12.7067 1.38696 12.6912 1.47967 12.6613 1.56815C12.0562 3.75245 12.0413 6.05819 12.618 8.25015C13.1948 10.4421 14.3426 12.4418 15.9444 14.0453C17.5462 15.6488 19.5446 16.7987 21.7358 17.3776C23.927 17.9566 26.2325 17.9439 28.4172 17.3408L28.7528 17.2798C29.0181 17.2777 29.2771 17.3611 29.4914 17.5177C29.7057 17.6743 29.8638 17.8958 29.9425 18.1493C30.0192 18.3769 30.0192 18.6234 29.9425 18.851Z" fill="#262626"/>
</svg>
