<svg width="57" height="57" viewBox="0 0 57 57" fill="none" xmlns="http://www.w3.org/2000/svg">
<path d="M28.5 10.3636C27.7659 10.3636 27.151 10.1149 26.6553 9.61745C26.1578 9.12173 25.9091 8.50682 25.9091 7.77273V2.59091C25.9091 1.85682 26.1578 1.24105 26.6553 0.743591C27.151 0.247863 27.7659 0 28.5 0C29.2341 0 29.8499 0.247863 30.3473 0.743591C30.843 1.24105 31.0909 1.85682 31.0909 2.59091V7.77273C31.0909 8.50682 30.843 9.12173 30.3473 9.61745C29.8499 10.1149 29.2341 10.3636 28.5 10.3636ZM41.325 15.675C40.85 15.2 40.6125 14.6058 40.6125 13.8925C40.6125 13.1808 40.85 12.5659 41.325 12.0477L44.9523 8.35568C45.4705 7.8375 46.0854 7.57841 46.797 7.57841C47.5104 7.57841 48.1261 7.8375 48.6443 8.35568C49.1193 8.83068 49.3568 9.43523 49.3568 10.1693C49.3568 10.9034 49.1193 11.508 48.6443 11.983L44.9523 15.675C44.4773 16.15 43.8727 16.3875 43.1386 16.3875C42.4045 16.3875 41.8 16.15 41.325 15.675ZM49.2273 31.0909C48.4932 31.0909 47.8783 30.8422 47.3825 30.3447C46.8851 29.849 46.6364 29.2341 46.6364 28.5C46.6364 27.7659 46.8851 27.1501 47.3825 26.6527C47.8783 26.157 48.4932 25.9091 49.2273 25.9091H54.4091C55.1432 25.9091 55.7581 26.157 56.2538 26.6527C56.7513 27.1501 57 27.7659 57 28.5C57 29.2341 56.7513 29.849 56.2538 30.3447C55.7581 30.8422 55.1432 31.0909 54.4091 31.0909H49.2273ZM28.5 57C27.7659 57 27.151 56.7513 26.6553 56.2538C26.1578 55.7581 25.9091 55.1432 25.9091 54.4091V49.2273C25.9091 48.4932 26.1578 47.8783 26.6553 47.3825C27.151 46.8851 27.7659 46.6364 28.5 46.6364C29.2341 46.6364 29.8499 46.8851 30.3473 47.3825C30.843 47.8783 31.0909 48.4932 31.0909 49.2273V54.4091C31.0909 55.1432 30.843 55.7581 30.3473 56.2538C29.8499 56.7513 29.2341 57 28.5 57ZM12.0477 15.675L8.35568 12.0477C7.8375 11.5295 7.57841 10.9034 7.57841 10.1693C7.57841 9.43523 7.8375 8.83068 8.35568 8.35568C8.83068 7.88068 9.43523 7.64318 10.1693 7.64318C10.9034 7.64318 11.508 7.88068 11.983 8.35568L15.675 12.0477C16.15 12.5227 16.3875 13.1273 16.3875 13.8614C16.3875 14.5955 16.15 15.2 15.675 15.675C15.1568 16.15 14.5523 16.3875 13.8614 16.3875C13.1705 16.3875 12.5659 16.15 12.0477 15.675ZM44.9523 48.6443L41.325 44.9523C40.85 44.4341 40.6125 43.8192 40.6125 43.1075C40.6125 42.3942 40.85 41.8 41.325 41.325C41.8 40.85 42.3942 40.6125 43.1075 40.6125C43.8192 40.6125 44.4341 40.85 44.9523 41.325L48.6443 44.9523C49.1625 45.4273 49.4104 46.0318 49.3879 46.7659C49.3672 47.5 49.1193 48.1261 48.6443 48.6443C48.1261 49.1625 47.5 49.4216 46.7659 49.4216C46.0318 49.4216 45.4273 49.1625 44.9523 48.6443ZM2.59091 31.0909C1.85682 31.0909 1.24191 30.8422 0.746182 30.3447C0.248727 29.849 0 29.2341 0 28.5C0 27.7659 0.248727 27.1501 0.746182 26.6527C1.24191 26.157 1.85682 25.9091 2.59091 25.9091H7.77273C8.50682 25.9091 9.12259 26.157 9.62004 26.6527C10.1158 27.1501 10.3636 27.7659 10.3636 28.5C10.3636 29.2341 10.1158 29.849 9.62004 30.3447C9.12259 30.8422 8.50682 31.0909 7.77273 31.0909H2.59091ZM8.35568 48.6443C7.88068 48.1693 7.64318 47.5648 7.64318 46.8307C7.64318 46.0966 7.88068 45.492 8.35568 45.017L12.0477 41.325C12.5227 40.85 13.1169 40.6125 13.8303 40.6125C14.5419 40.6125 15.1568 40.85 15.675 41.325C16.1932 41.8432 16.4523 42.459 16.4523 43.1723C16.4523 43.884 16.1932 44.4989 15.675 45.017L12.0477 48.6443C11.5295 49.1625 10.9034 49.4216 10.1693 49.4216C9.43523 49.4216 8.83068 49.1625 8.35568 48.6443ZM28.5 44.0455C24.1818 44.0455 20.5114 42.5341 17.4886 39.5114C14.4659 36.4886 12.9545 32.8182 12.9545 28.5C12.9545 24.1818 14.4659 20.5114 17.4886 17.4886C20.5114 14.4659 24.1818 12.9545 28.5 12.9545C32.8182 12.9545 36.4886 14.4659 39.5114 17.4886C42.5341 20.5114 44.0455 24.1818 44.0455 28.5C44.0455 32.8182 42.5341 36.4886 39.5114 39.5114C36.4886 42.5341 32.8182 44.0455 28.5 44.0455ZM28.5 38.8636C31.35 38.8636 33.7898 37.8489 35.8193 35.8193C37.8489 33.7898 38.8636 31.35 38.8636 28.5C38.8636 25.65 37.8489 23.2102 35.8193 21.1807C33.7898 19.1511 31.35 18.1364 28.5 18.1364C25.65 18.1364 23.2102 19.1511 21.1807 21.1807C19.1511 23.2102 18.1364 25.65 18.1364 28.5C18.1364 31.35 19.1511 33.7898 21.1807 35.8193C23.2102 37.8489 25.65 38.8636 28.5 38.8636ZM28.5 38.8636C25.65 38.8636 23.2102 37.8489 21.1807 35.8193C19.1511 33.7898 18.1364 31.35 18.1364 28.5C18.1364 25.65 19.1511 23.2102 21.1807 21.1807C23.2102 19.1511 25.65 18.1364 28.5 18.1364C31.35 18.1364 33.7898 19.1511 35.8193 21.1807C37.8489 23.2102 38.8636 25.65 38.8636 28.5C38.8636 31.35 37.8489 33.7898 35.8193 35.8193C33.7898 37.8489 31.35 38.8636 28.5 38.8636Z" fill="white"/>
</svg>
